HIERARCHY
ROOT Hips
{
	OFFSET 228.634003 92.561920 -263.051910
	CHANNELS 6 Xposition Yposition Zposition Zrotation Yrotation Xrotation 
	JOINT LeftUpLeg
	{
		OFFSET 0.103458 1.857820 10.548502
		CHANNELS 3 Zrotation Yrotation Xrotation
		JOINT LeftLeg
		{
			OFFSET 43.500000 -0.000023 -0.000011
			CHANNELS 3 Zrotation Yrotation Xrotation
			JOINT LeftFoot
			{
				OFFSET 42.372192 0.000038 0.000002
				CHANNELS 3 Zrotation Yrotation Xrotation
				JOINT LeftToe
				{
					OFFSET 17.299992 -0.000004 0.000006
					CHANNELS 3 Zrotation Yrotation Xrotation
					End Site
					{
						OFFSET 0.000000 0.000000 0.000000
					}
				}
			}
		}
	}
	JOINT RightUpLeg
	{
		OFFSET 0.103461 1.857814 -10.548508
		CHANNELS 3 Zrotation Yrotation Xrotation
		JOINT RightLeg
		{
			OFFSET 43.500042 -0.000015 0.000008
			CHANNELS 3 Zrotation Yrotation Xrotation
			JOINT RightFoot
			{
				OFFSET 42.372253 0.000008 0.000006
				CHANNELS 3 Zrotation Yrotation Xrotation
				JOINT RightToe
				{
					OFFSET 17.299973 -0.000014 0.000011
					CHANNELS 3 Zrotation Yrotation Xrotation
					End Site
					{
						OFFSET 0.000000 0.000000 0.000000
					}
				}
			}
		}
	}
	JOINT Spine
	{
		OFFSET 6.901966 -2.603737 -0.000007
		CHANNELS 3 Zrotation Yrotation Xrotation
		JOINT Spine1
		{
			OFFSET 12.588102 0.000017 0.000001
			CHANNELS 3 Zrotation Yrotation Xrotation
			JOINT Spine2
			{
				OFFSET 12.343197 -0.000013 0.000000
				CHANNELS 3 Zrotation Yrotation Xrotation
				JOINT Neck
				{
					OFFSET 25.832905 -0.000008 0.000000
					CHANNELS 3 Zrotation Yrotation Xrotation
					JOINT Head
					{
						OFFSET 11.766610 0.000009 -0.000002
						CHANNELS 3 Zrotation Yrotation Xrotation
						End Site
						{
							OFFSET 0.000000 0.000000 0.000000
						}
					}
				}
				JOINT LeftShoulder
				{
					OFFSET 19.745903 -1.480377 6.000115
					CHANNELS 3 Zrotation Yrotation Xrotation
					JOINT LeftArm
					{
						OFFSET 11.284125 -0.000014 -0.000024
						CHANNELS 3 Zrotation Yrotation Xrotation
						JOINT LeftForeArm
						{
							OFFSET 33.000046 -0.000012 0.000029
							CHANNELS 3 Zrotation Yrotation Xrotation
							JOINT LeftHand
							{
								OFFSET 25.199989 0.000034 0.000012
								CHANNELS 3 Zrotation Yrotation Xrotation
								End Site
								{
									OFFSET 0.000000 0.000000 0.000000
								}
							}
						}
					}
				}
				JOINT RightShoulder
				{
					OFFSET 19.746098 -1.480362 -6.000071
					CHANNELS 3 Zrotation Yrotation Xrotation
					JOINT RightArm
					{
						OFFSET 11.284137 -0.000006 -0.000008
						CHANNELS 3 Zrotation Yrotation Xrotation
						JOINT RightForeArm
						{
							OFFSET 33.000095 0.000017 0.000000
							CHANNELS 3 Zrotation Yrotation Xrotation
							JOINT RightHand
							{
								OFFSET 25.199778 0.000144 0.000423
								CHANNELS 3 Zrotation Yrotation Xrotation
								End Site
								{
									OFFSET 0.000000 0.000000 0.000000
								}
							}
						}
					}
				}
			}
		}
	}
}
MOTION
Frames: 11
Frame Time: 0.033333
19.259081 16.899561 -466.186890 -139.786911 56.008299 -118.614418 98.339090 -2.972902 -170.277067 -80.670019 -1.220931 -4.208702 66.712206 -0.406245 -9.225005 21.454545 0.003097 0.000001 109.767547 35.169098 164.366535 -80.084118 1.870110 3.769852 76.185289 1.150094 13.541528 21.454558 -0.003112 -0.000013 10.698892 -1.771891 -0.659940 11.412820 -3.469967 -1.492303 11.094199 -3.478782 -1.471294 23.715072 2.484855 8.088385 -23.235759 1.040646 8.221964 49.897681 -79.126990 128.825810 -12.159601 34.040075 -68.573282 -120.776596 1.028616 3.568014 -5.908332 2.372838 41.865863 -113.703149 82.186560 68.558659 -11.190604 -46.001252 31.499070 -83.181916 8.640680 -2.648649 4.830949 22.155365 -20.859698 
19.811420 16.639429 -466.312408 -140.756825 54.731491 -118.155320 97.220585 -2.992990 -171.870331 -86.546188 -0.161416 -5.617223 66.432694 0.467106 -9.511946 21.454558 0.003090 -0.000001 108.312559 34.930414 165.661607 -83.774504 0.985206 3.548498 75.800743 1.295016 13.225377 21.454553 -0.003107 -0.000022 10.986060 -1.934255 -0.790288 11.995171 -3.776041 -1.778077 11.676483 -3.786574 -1.755206 23.773517 2.076242 9.284800 -24.066050 0.825152 9.631299 49.853387 -77.749191 128.929506 -12.628896 33.999162 -73.599386 -118.754996 0.909758 3.494123 -8.014474 -0.705679 48.374070 -118.974901 82.949123 63.196134 -15.066762 -41.524241 36.039999 -86.787430 5.889548 -2.615630 2.638786 22.400825 -24.989468 
20.165791 16.435141 -466.246796 -141.798484 53.821194 -117.980385 96.423522 -3.905697 -173.784943 -91.415143 1.006931 -6.831519 65.855618 1.219718 -9.648990 21.454551 0.003092 0.000008 107.405018 34.105303 167.393648 -87.276799 0.049781 3.364096 75.579854 1.458879 13.147490 21.454565 -0.003108 -0.000015 11.181831 -2.086645 -0.929618 12.395572 -4.061565 -2.079068 12.076822 -4.073897 -2.054464 24.026594 1.892203 10.399538 -23.907441 0.694247 10.902717 48.945685 -76.688380 129.865310 -13.210872 34.333449 -79.619686 -117.680895 0.642946 3.468407 -9.498114 1.231252 50.699746 -128.320335 83.283352 53.759702 -19.834832 -37.343441 41.090923 -90.161072 3.276475 -2.583158 0.533949 22.421455 -28.252143 
20.442560 16.307650 -466.138794 -142.818108 53.002811 -117.599001 96.505853 -5.020093 -175.233052 -95.200939 1.847668 -7.138759 65.675083 1.283944 -9.924346 21.454550 0.003092 0.000007 107.469482 33.407200 169.409633 -90.219368 -0.813268 2.993807 75.274128 1.765988 13.077704 21.454570 -0.003113 -0.000009 11.328396 -2.216760 -1.127530 12.699808 -4.296202 -2.493711 12.381052 -4.311040 -2.467689 24.414675 2.302329 11.240908 -22.679365 -0.100767 12.115943 48.309518 -75.847092 130.523576 -13.607996 34.646428 -84.426718 -116.639099 0.667496 3.423598 -9.005631 0.096157 48.180499 -142.348519 82.988882 39.622464 -24.458195 -33.123293 44.055331 -93.567438 1.751429 -2.628902 -0.717495 22.243418 -29.202535 
20.758230 16.214609 -465.973297 -143.457209 52.273371 -117.027204 97.333829 -6.222394 -175.744456 -98.426543 2.211852 -6.589441 65.703005 0.824805 -10.005602 21.454553 0.003090 0.000008 108.665339 32.513405 171.052580 -92.157092 -1.215318 2.044135 74.983517 2.495173 13.061264 21.454558 -0.003112 -0.000013 11.472578 -2.261719 -1.203984 12.992669 -4.373704 -2.656696 12.673917 -4.389524 -2.630199 25.147619 3.191193 11.660028 -21.742341 -0.766877 12.775059 49.191285 -74.896883 129.701399 -14.094519 34.833292 -87.943337 -115.748088 0.821914 3.375806 -8.622381 -3.704758 44.218102 -155.172172 82.285509 26.683568 -28.182831 -29.534035 45.579048 -97.142243 0.908834 -2.730232 -1.789282 20.756825 -30.512070 
21.075310 16.067350 -465.804413 -144.408996 51.938671 -116.733179 98.381813 -7.301604 -175.849996 -101.185107 2.529955 -5.931992 65.920355 0.290737 -10.131007 21.454548 0.003090 -0.000002 110.283164 31.549306 172.144782 -93.043398 -1.265939 0.975059 74.790052 3.369766 13.313426 21.454555 -0.003107 -0.000019 11.521841 -2.181991 -1.290639 13.091621 -4.203737 -2.822186 12.772998 -4.220553 -2.796723 25.555785 3.131827 11.815713 -20.935385 -0.874334 12.965934 51.014809 -74.828820 127.922340 -15.091400 34.712449 -91.328495 -115.459102 1.251705 3.334050 -7.518157 -6.437336 43.461119 -164.216722 82.731315 17.528499 -31.425523 -27.593693 46.341232 -100.370115 0.172208 -2.823300 -3.455264 19.603649 -31.151697 
21.417660 15.861520 -465.616211 -145.553612 51.668400 -116.670600 99.955939 -8.283005 -175.811269 -103.642090 2.805268 -5.586553 65.861014 -0.026355 -10.228068 21.454555 0.003088 -0.000006 112.267212 30.517815 173.063962 -93.219385 -1.278099 0.610019 74.652444 3.506833 12.838144 21.454560 -0.003105 -0.000011 11.569371 -2.102156 -1.357584 13.186209 -4.035683 -2.948106 12.867703 -4.053274 -2.923659 25.502893 3.417826 12.040073 -19.872980 -1.258758 13.313211 52.933437 -74.987390 126.038860 -16.244420 34.264614 -93.553606 -115.376799 1.417339 3.319176 -7.464067 -6.978463 45.106159 -170.306833 83.275121 11.370489 -35.042617 -26.612874 45.858676 -103.170397 -0.306131 -2.914814 -4.798940 19.560023 -32.908500 
21.860121 15.693720 -465.393005 -146.628302 51.320832 -116.818815 102.061987 -9.407593 -175.973253 -105.815005 3.094601 -5.954435 65.528138 0.200377 -10.217005 21.454551 0.003090 -0.000006 114.696703 29.272599 173.826853 -92.925482 -1.354370 0.963585 74.546324 3.137519 12.425179 21.454558 -0.003107 -0.000012 11.625195 -2.041613 -1.402690 13.297209 -3.908269 -3.032842 12.978784 -3.926363 -3.009171 25.365332 3.644771 12.377941 -18.842100 -1.763600 13.825671 54.360133 -75.409229 124.621815 -17.340185 33.513068 -93.778545 -115.410403 1.212396 3.334731 -7.730406 -7.726014 49.083560 -177.954555 83.736623 3.649453 -39.556231 -26.732536 44.913111 -105.517099 -0.681905 -2.992703 -5.641316 19.934300 -34.610563 
22.384260 15.508300 -465.144287 -147.696297 51.041502 -117.003996 104.394380 -10.526705 -176.371330 -107.630100 3.378961 -6.864874 65.222494 0.652610 -10.664538 21.454550 0.003089 -0.000001 117.406840 28.076104 174.246950 -92.303552 -1.224148 1.196586 74.399352 3.119333 12.898437 21.454568 -0.003115 -0.000017 11.678037 -1.995278 -1.433823 13.402255 -3.810798 -3.091166 13.083891 -3.829254 -3.068089 25.122312 4.063457 12.798379 -18.278804 -2.438102 14.489440 54.858809 -75.715516 124.117911 -18.494429 32.893522 -93.459227 -115.497488 0.958374 3.355902 -7.460616 -7.423503 51.063970 175.382510 83.454045 -3.083622 -44.971287 -27.204421 42.391333 -106.541710 -0.701216 -3.036560 -6.936077 21.300167 -36.119079 
22.901291 15.276160 -464.867188 -149.146005 50.886398 -117.384601 106.599268 -11.409201 -177.396733 -109.077909 3.649199 -8.127465 65.412749 1.495949 -10.913587 21.454548 0.003088 0.000010 120.091487 26.945791 174.460913 -91.502712 -1.036723 1.400093 74.300300 2.926532 12.740271 21.454563 -0.003116 -0.000020 11.716115 -1.908677 -1.439967 13.475491 -3.636421 -3.094322 13.157188 -3.654903 -3.072295 24.542114 3.364031 13.082596 -18.139521 -2.166238 14.729829 56.290174 -76.247417 122.687232 -20.293354 32.453432 -93.675621 -115.664718 1.002831 3.359832 -6.838526 -6.211809 51.260662 167.617992 83.185311 -10.931982 -50.536426 -28.398974 38.764209 -106.407695 -0.552173 -3.041000 -9.029589 21.894149 -37.485092 
23.434179 15.064240 -464.525513 -150.703083 50.667436 -117.849887 108.674320 -12.314898 -178.702242 -110.435881 3.857166 -9.130641 65.547058 2.204424 -11.013755 21.454551 0.003091 -0.000007 122.859093 25.642296 174.609647 -90.667899 -0.966069 1.488712 74.201147 2.794118 12.476769 21.454557 -0.003111 -0.000019 11.790249 -1.830602 -1.305292 13.617154 -3.494627 -2.818565 13.298836 -3.511448 -2.797397 24.058858 2.297622 13.238573 -18.445271 -1.582636 14.741934 58.724785 -76.448689 120.287800 -22.534222 32.064600 -93.866559 -116.144498 1.338194 3.356741 -6.401964 -5.714157 50.903061 155.346683 82.534339 -23.349999 -55.349490 -30.204780 34.444391 -105.180200 -0.210960 -3.010531 -10.867798 21.411347 -39.392293 
